<?xml version="1.0" standalone="no"?><!DOCTYPE svg PUBLIC "-//W3C//DTD SVG 1.1//EN" "http://www.w3.org/Graphics/SVG/1.1/DTD/svg11.dtd"><svg t="1529367677823" class="icon" style="" viewBox="0 0 1024 1024" version="1.1" xmlns="http://www.w3.org/2000/svg" p-id="4747" xmlns:xlink="http://www.w3.org/1999/xlink" width="128" height="128"><defs><style type="text/css"></style></defs><path d="M154.315369 253.44511c47.00998 0 83.800399-57.229541 83.800399-126.722555C238.115768 59.273453 201.325349 2.043912 154.315369 2.043912 109.349301 2.043912 70.51497 59.273453 70.51497 128.766467c0 69.493014 38.834331 124.678643 83.800399 124.678643z m-122.63473 331.113772C31.680639 627.481038 64.383234 1024 505.868263 1024c398.562874 0 486.451098-400.606786 486.451098-439.441118 0-38.834331-228.918164-83.800399-484.407185-83.800399-222.786427 0-476.231537 42.922156-476.231537 83.800399z m795.081836-331.113772c47.00998 0 83.800399-57.229541 83.800399-126.722555 0-69.493014-36.790419-126.722555-83.800399-126.722555s-83.800399 57.229541-83.800399 126.722555c0 71.536926 36.790419 126.722555 83.800399 126.722555z" p-id="4748" fill="#a0acac"></path></svg>