<?xml version="1.0" standalone="no"?><!DOCTYPE svg PUBLIC "-//W3C//DTD SVG 1.1//EN" "http://www.w3.org/Graphics/SVG/1.1/DTD/svg11.dtd"><svg t="1528815383992" class="icon" style="" viewBox="0 0 1024 1024" version="1.1" xmlns="http://www.w3.org/2000/svg" p-id="1965" xmlns:xlink="http://www.w3.org/1999/xlink" width="48" height="48"><defs><style type="text/css"></style></defs><path d="M145.83 873.731H796.06c24.411 0 44.384-19.973 44.384-44.384V500.904c0-13.315-8.877-22.192-22.192-22.192s-22.192 8.877-22.192 22.192v326.224H145.83v-648.01h616.94c13.315 0 22.192-8.876 22.192-22.191s-8.877-22.192-22.192-22.192H145.83c-24.412 0-44.385 19.972-44.385 44.384v650.228c0 24.411 19.973 44.384 44.385 44.384z" p-id="1966" fill="#2c2c2c"></path><path d="M887.046 203.53L398.82 691.756c-8.876 8.877-8.876 22.192 0 31.069 4.439 4.438 11.096 6.657 15.535 6.657s11.096-2.219 15.534-6.657L920.334 232.38c8.877-8.877 8.877-22.192 0-31.07s-24.41-6.657-33.288 2.22z" p-id="1967" fill="#2c2c2c"></path></svg>