<?xml version="1.0" standalone="no"?><!DOCTYPE svg PUBLIC "-//W3C//DTD SVG 1.1//EN" "http://www.w3.org/Graphics/SVG/1.1/DTD/svg11.dtd"><svg t="1528595302739" class="icon" style="" viewBox="0 0 1024 1024" version="1.1" xmlns="http://www.w3.org/2000/svg" p-id="4455" xmlns:xlink="http://www.w3.org/1999/xlink" width="48" height="48"><defs><style type="text/css"></style></defs><path d="M914.768203 240.361323H109.231797c-20.2236 0-36.615942 16.393365-36.615943 36.613896v439.387215c0 20.22053 16.393365 36.613896 36.613896 36.613896h36.615943v109.845781l109.84578-109.845781H914.768203c20.222577 0 36.613896-16.393365 36.613896-36.613896V276.976242c0.002047-20.222577-16.390295-36.615942-36.613896-36.615942zM802.598494 314.096674c17.34197 10.990309 35.907815 24.182772 55.695487 39.571251l-17.587564 21.25407c-20.274766-17.342993-38.23072-31.512714-53.863768-42.506093l15.756869-18.320251z m-201.163579-4.031826l27.847232 10.992355c-25.163099 49.589418-46.781466 88.673575-64.857147 117.253494a5916.353256 5916.353256 0 0 0 44.155662-1.647523c8.425903-15.024182 17.157775-31.329543 26.196639-48.918129l27.117614 13.558807c-29.803793 51.543933-57.775868 95.636151-83.911108 132.277676 21.739117-3.175319 47.38931-7.328919 76.94751-12.458753-1.465374 9.039887-2.564405 18.443048-3.298116 28.212552-40.795125 6.354731-76.581166 12.092409-107.36017 17.222243l-5.863545-27.479865c16.97665-18.198477 35.603893-44.153616 55.879682-77.863368-19.787672 1.098008-38.414915 2.50403-55.879682 4.212951l-6.962575-24.917506c22.717398-31.021527 46.045709-74.501808 69.985958-130.443911z m-98.55155 333.073888h-262.355243v-25.64917H355.214141V507.931335h-95.267761v-26.380834h95.269807v-73.651441h30.04427v73.650417h96.736205v26.380834h-96.735181v109.558232h117.620861v25.64917z m0-259.057127h-224.24732c-14.538111 32.612769-31.512714 63.332421-50.93302 92.154863v194.018855h-28.580942V515.258207a593.549318 593.549318 0 0 1-42.139749 47.26856c-5.128811-8.547677-10.990309-17.340947-17.587564-26.380834 44.946678-46.656623 80.306001-97.345072 106.077967-152.063301H149.652392v-27.117614h107.72856a555.25106 555.25106 0 0 0 16.122189-45.434795l30.41266 7.695262a728.880539 728.880539 0 0 1-13.740956 37.741579h212.706473V384.080585z m28.565593 234.142691c42.992163-9.281387 86.475514-19.422352 130.445957-30.41266-0.732687 9.772574-1.099031 19.053961-1.099031 27.847231a3820.676397 3820.676397 0 0 0-121.28225 30.412661l-8.063653-27.847232z m352.861559 20.151969c-7.085372 20.762883-19.176758 31.146371-36.276204 31.146371-17.83418 0-34.32169-7.326872-49.466622-21.984711-9.892301-9.406231-18.749016-21.069875-26.565029-34.992978-33.590026 21.739117-71.26816 40.609906-113.039519 56.611345-4.397147-6.841825-10.507308-15.144932-18.321274-24.917506 45.922912-16.487509 85.679381-35.600823 119.269407-57.343009-8.674567-22.106484-15.513322-48.304146-20.520359-78.59708L661.162228 519.290033l-4.39817-26.380833 78.962399-10.993379c-2.077312-17.099447-3.602038-35.359322-4.580318-54.779627l-66.322521 7.511067-4.397147-26.380834 69.254293-7.695262c-1.344624-25.403576-2.564405-54.596456-3.663436-87.574545h30.04427c0.610914 31.511691 1.403976 59.607586 2.384304 84.276429l122.565476-13.924128 3.299139 26.015514-124.765584 14.473643c0.852414 19.299555 2.258437 37.375236 4.212951 54.230112l126.414131-17.771759 3.298116 26.015514-126.229936 17.953907c4.15053 25.282826 9.769504 47.266513 16.853853 65.955154 25.894763-19.539009 47.452755-40.914852 64.672952-64.122413l23.817452 17.953907c-21.98471 26.503631-47.514153 50.505277-76.581166 71.999825 9.404184 16.856923 20.640086 29.740348 33.709753 38.658461 16.123212 9.526981 26.503631 4.640694 31.14637-14.655791 3.175319-15.633049 5.740748-32.978089 7.695263-52.032051 11.235902 4.88731 20.640086 8.428973 28.214598 10.628059-4.154623 26.383904-8.309246 46.290279-12.458753 59.727313z" p-id="4456"></path></svg>